mtllib ./Layout.unity_1.mtl
g Bathtub
v -0.1 0 1.032459
v -2.199178 0 1.032459
v -0.1 0.5226336 1.032459
v -2.199178 0.5226336 1.032459
v -2.199178 0 1.032459
v -2.199178 0 0.2
v -2.199178 0.5226336 1.032459
v -2.199178 0.5226336 0.2
v -2.199178 0 0.2
v -0.1 0 0.2
v -2.199178 0.5226336 0.2
v -0.1 0.5226336 0.2
v -0.1 0 0.2
v -0.1 0 1.032459
v -0.1 0.5226336 0.2
v -0.1 0.5226336 1.032459
v -0.263675 0.1165504 0.917078
v -1.80276 0.1165504 0.917078
v -0.263675 0.1165504 0.3153812
v -1.80276 0.1165504 0.3153812
v -0.1 0 0.2
v -2.199178 0 0.2
v -0.1 0 1.032459
v -2.199178 0 1.032459
v -0.1 0.5226336 1.032459
v -2.199178 0.5226336 1.032459
v -0.2577696 0.5226336 0.9453342
v -1.941408 0.5226336 0.9453342
v -0.1 0.5226336 0.2
v -0.1 0.5226336 1.032459
v -0.2577696 0.5226336 0.2871249
v -0.2577696 0.5226336 0.9453342
v -2.199178 0.5226336 1.032459
v -2.199178 0.5226336 0.2
v -1.941408 0.5226336 0.9453342
v -1.941408 0.5226336 0.2871249
v -2.199178 0.5226336 0.2
v -0.1 0.5226336 0.2
v -1.941408 0.5226336 0.2871249
v -0.2577696 0.5226336 0.2871249
v -0.2577696 0.5226336 0.9453342
v -1.941408 0.5226336 0.9453342
v -0.263675 0.1165504 0.917078
v -1.80276 0.1165504 0.917078
v -0.2577696 0.5226336 0.2871249
v -0.2577696 0.5226336 0.9453342
v -0.263675 0.1165504 0.3153812
v -0.263675 0.1165504 0.917078
v -1.941408 0.5226336 0.9453342
v -1.941408 0.5226336 0.2871249
v -1.80276 0.1165504 0.917078
v -1.80276 0.1165504 0.3153812
v -1.941408 0.5226336 0.2871249
v -0.2577696 0.5226336 0.2871249
v -1.80276 0.1165504 0.3153812
v -0.263675 0.1165504 0.3153812

vn 2.839428E-08 0 1
vn 2.839428E-08 0 1
vn 2.839428E-08 0 1
vn 2.839428E-08 0 1
vn -1 0 0
vn -1 0 0
vn -1 0 0
vn -1 0 0
vn 0 0 -1
vn 0 0 -1
vn 0 0 -1
vn 0 0 -1
vn 1 0 0
vn 1 0 0
vn 1 0 0
vn 1 0 0
vn 0 0.9999999 0
vn 0 0.9999999 0
vn 0 0.9999999 0
vn 0 0.9999999 0
vn 0 -1 0
vn 0 -1 0
vn 0 -1 0
vn 0 -1 0
vn 0 1 0
vn 0 1 0
vn 0 1 0
vn 0 0.9999999 0
vn 0 1 0
vn 0 0.9999999 0
vn 0 0.9999999 0
vn 0 1 0
vn 0 1 0
vn 0 1 0
vn 0 1 0
vn 0 1 0
vn 0 1 0
vn 0 1 0
vn 0 1 0
vn 0 1 0
vn 0 0.06941464 -0.9975879
vn 0 0.06941464 -0.9975879
vn 0 0.06941464 -0.9975879
vn 0 0.06941463 -0.9975879
vn -0.9998943 0.01454085 0
vn -0.9998943 0.01454085 0
vn -0.9998943 0.01454085 0
vn -0.9998943 0.01454085 0
vn 0.94636 0.3231141 0
vn 0.9463601 0.3231141 0
vn 0.9463601 0.3231141 0
vn 0.94636 0.3231141 0
vn 0 0.06941471 0.9975879
vn 0 0.06941471 0.9975879
vn 0 0.06941471 0.9975879
vn 0 0.06941471 0.9975879

vt 2.099178 0
vt 0 0
vt 2.099178 0.5226336
vt 0 0.5226336
vt 0.832459 0
vt 0 0
vt 0.832459 0.5226336
vt 0 0.5226336
vt 2.099178 0
vt 0 0
vt 2.099178 0.5226336
vt 0 0.5226336
vt 0.832459 0
vt 2.980232E-08 0
vt 0.832459 0.5226336
vt 2.980232E-08 0.5226336
vt -5.960464E-08 0.6016968
vt 1.539085 0.6016968
vt -5.960464E-08 0
vt 1.539085 0
vt 2.099178 0
vt 0 0
vt 2.099178 0.8324589
vt 0 0.832459
vt 0 0.08712474
vt 2.099178 0.08712479
vt 0.1577696 0
vt 1.841408 0
vt -7.450581E-09 0
vt -7.450581E-09 0.8324589
vt 0.1577696 0.08712482
vt 0.1577696 0.7453341
vt 0.2577696 0.832459
vt 0.2577696 0
vt 0 0.7453341
vt 0 0.08712482
vt 2.099178 0
vt 0 0
vt 1.841408 0.08712482
vt 0.1577696 0.08712482
vt 5.960464E-08 0.407065
vt 1.683639 0.407065
vt 0.005905509 -1.490116E-08
vt 1.54499 -1.490116E-08
vt 0 0.406126
vt 0.6582093 0.406126
vt 0.0282563 -1.490116E-08
vt 0.6299531 -1.490116E-08
vt -2.980232E-08 0.4291
vt 0.6582093 0.4291
vt 0.02825624 5.960464E-08
vt 0.629953 5.960464E-08
vt 0 0.407065
vt 1.683639 0.407065
vt 0.1386483 -1.490116E-08
vt 1.677733 -1.490116E-08

usemtl Default_Prototype
usemap Default_Prototype
f 2/2/2 1/1/1 3/3/3
f 4/4/4 2/2/2 3/3/3
f 6/6/6 5/5/5 7/7/7
f 8/8/8 6/6/6 7/7/7
f 10/10/10 9/9/9 11/11/11
f 12/12/12 10/10/10 11/11/11
f 14/14/14 13/13/13 15/15/15
f 16/16/16 14/14/14 15/15/15
f 18/18/18 17/17/17 19/19/19
f 20/20/20 18/18/18 19/19/19
f 22/22/22 21/21/21 23/23/23
f 24/24/24 22/22/22 23/23/23
f 26/26/26 25/25/25 27/27/27
f 28/28/28 26/26/26 27/27/27
f 30/30/30 29/29/29 31/31/31
f 32/32/32 30/30/30 31/31/31
f 34/34/34 33/33/33 35/35/35
f 36/36/36 34/34/34 35/35/35
f 38/38/38 37/37/37 39/39/39
f 40/40/40 38/38/38 39/39/39
f 42/42/42 41/41/41 43/43/43
f 44/44/44 42/42/42 43/43/43
f 46/46/46 45/45/45 47/47/47
f 48/48/48 46/46/46 47/47/47
f 50/50/50 49/49/49 51/51/51
f 52/52/52 50/50/50 51/51/51
f 54/54/54 53/53/53 55/55/55
f 56/56/56 54/54/54 55/55/55
