mtllib ./Layout.unity_1.mtl
g Bathroom Sink
v -1.6 0.9 2.2
v -1.2 0.9 2.199996
v -1.6 0.8547662 2.200005
v -1.2 0.8547662 2.2
v -1.2 0.9 2.199996
v -1.200005 0.8999951 1.864582
v -1.2 0.8547662 2.2
v -1.200005 0.8547615 1.864587
v -1.200005 0.8999951 1.864582
v -1.600004 0.8999951 1.864587
v -1.200005 0.8547615 1.864587
v -1.600004 0.8547615 1.864592
v -1.600004 0.8999951 1.864587
v -1.6 0.9 2.2
v -1.600004 0.8547615 1.864592
v -1.6 0.8547662 2.200005
v -1.450549 0.720453 2.201451
v -1.349454 0.720453 2.201448
v -1.450551 0.7204487 2.075032
v -1.349456 0.7204487 2.075029
v -1.459033 0.7459019 2.02367
v -1.340973 0.7459019 2.023668
v -1.459032 0.7459053 2.134053
v -1.340971 0.7459053 2.134051
v -1.6 0.8547662 2.200005
v -1.2 0.8547662 2.2
v -1.541329 0.7661657 2.201451
v -1.258672 0.7661657 2.201448
v -1.600004 0.8547615 1.864592
v -1.6 0.8547662 2.200005
v -1.541332 0.7661614 1.960021
v -1.541329 0.7661657 2.201451
v -1.2 0.8547662 2.2
v -1.200005 0.8547615 1.864587
v -1.258672 0.7661657 2.201448
v -1.258676 0.7661614 1.960017
v -1.200005 0.8547615 1.864587
v -1.600004 0.8547615 1.864592
v -1.258676 0.7661614 1.960017
v -1.541332 0.7661614 1.960021
v -1.541329 0.7661657 2.201451
v -1.258672 0.7661657 2.201448
v -1.450549 0.720453 2.201451
v -1.349454 0.720453 2.201448
v -1.541332 0.7661614 1.960021
v -1.541329 0.7661657 2.201451
v -1.450551 0.7204487 2.075032
v -1.450549 0.720453 2.201451
v -1.258672 0.7661657 2.201448
v -1.258676 0.7661614 1.960017
v -1.349454 0.720453 2.201448
v -1.349456 0.7204487 2.075029
v -1.258676 0.7661614 1.960017
v -1.541332 0.7661614 1.960021
v -1.349456 0.7204487 2.075029
v -1.450551 0.7204487 2.075032
v -1.600004 0.8999951 1.864587
v -1.200005 0.8999951 1.864582
v -1.562004 0.8999956 1.897837
v -1.238004 0.8999956 1.897833
v -1.6 0.9 2.2
v -1.600004 0.8999951 1.864587
v -1.562001 0.8999995 2.123572
v -1.600004 0.8999951 1.864587
v -1.562004 0.8999956 1.897837
v -1.562001 0.8999995 2.123572
v -1.2 0.9 2.199996
v -1.238 0.8999995 2.123569
v -1.2 0.9 2.199996
v -1.6 0.9 2.2
v -1.238 0.8999995 2.123569
v -1.6 0.9 2.2
v -1.562001 0.8999995 2.123572
v -1.238 0.8999995 2.123569
v -1.562004 0.8999956 1.897837
v -1.238004 0.8999956 1.897833
v -1.541638 0.8231656 1.936673
v -1.25837 0.8231656 1.936669
v -1.562001 0.8999995 2.123572
v -1.562004 0.8999956 1.897837
v -1.541635 0.8231693 2.123988
v -1.541638 0.8231656 1.936673
v -1.238004 0.8999956 1.897833
v -1.238 0.8999995 2.123569
v -1.25837 0.8231656 1.936669
v -1.258367 0.8231693 2.123984
v -1.238 0.8999995 2.123569
v -1.562001 0.8999995 2.123572
v -1.258367 0.8231693 2.123984
v -1.541635 0.8231693 2.123988
v -1.541638 0.8231656 1.936673
v -1.25837 0.8231656 1.936669
v -1.459033 0.7459019 2.02367
v -1.340973 0.7459019 2.023668
v -1.541635 0.8231693 2.123988
v -1.541638 0.8231656 1.936673
v -1.459032 0.7459053 2.134053
v -1.459033 0.7459019 2.02367
v -1.25837 0.8231656 1.936669
v -1.258367 0.8231693 2.123984
v -1.340973 0.7459019 2.023668
v -1.340971 0.7459053 2.134051
v -1.258367 0.8231693 2.123984
v -1.541635 0.8231693 2.123988
v -1.340971 0.7459053 2.134051
v -1.459032 0.7459053 2.134053

vn 1.162291E-05 0.0001040108 1
vn 1.162291E-05 0.0001040109 1
vn 1.162291E-05 0.0001040109 1
vn 1.16229E-05 0.0001040109 1
vn 1 -9.148808E-10 -1.344557E-05
vn 0.9999999 -9.422798E-10 -1.344557E-05
vn 0.9999999 -9.422798E-10 -1.344557E-05
vn 0.9999999 -9.696789E-10 -1.344557E-05
vn -1.180172E-05 -0.0001102404 -1
vn -1.180172E-05 -0.0001102404 -1
vn -1.180172E-05 -0.0001102404 -1
vn -1.180172E-05 -0.0001102404 -1
vn -1 9.27062E-10 1.315019E-05
vn -1 8.990492E-10 1.315019E-05
vn -1 8.990492E-10 1.315019E-05
vn -0.9999999 8.710362E-10 1.315019E-05
vn 7.48669E-10 -0.9999999 3.405599E-05
vn 7.593005E-10 -1 3.405597E-05
vn 7.593005E-10 -1 3.405597E-05
vn 7.69932E-10 -1 3.405597E-05
vn -4.329657E-10 0.9999999 -3.006811E-05
vn -4.303414E-10 1 -3.006811E-05
vn -4.303414E-10 1 -3.006811E-05
vn -4.277171E-10 1 -3.006811E-05
vn 1.162135E-05 0.01633285 0.9998667
vn 1.17244E-05 0.01633245 0.9998667
vn 1.17244E-05 0.01633245 0.9998667
vn 1.187022E-05 0.01633189 0.9998666
vn -0.8337691 -0.5521133 1.883377E-05
vn -0.8337682 -0.5521147 1.959842E-05
vn -0.8337682 -0.5521147 1.959842E-05
vn -0.8337668 -0.5521167 2.066073E-05
vn 0.8337602 -0.5521266 -3.34065E-06
vn 0.8337619 -0.5521242 -2.40451E-06
vn 0.8337619 -0.5521242 -2.40451E-06
vn 0.8337642 -0.5521208 -1.103969E-06
vn -8.029898E-06 -0.7328424 -0.6803983
vn -8.131161E-06 -0.7328426 -0.6803982
vn -8.131161E-06 -0.7328426 -0.6803982
vn -8.274464E-06 -0.7328429 -0.6803979
vn 1.187156E-05 1.166947E-05 1
vn 1.528865E-05 -2.673549E-06 1
vn 1.528865E-05 -2.673549E-06 1
vn 2.484267E-05 -4.277599E-05 1
vn -0.4497679 -0.8931454 2.180592E-05
vn -0.449762 -0.8931485 2.711015E-05
vn -0.449762 -0.8931485 2.711015E-05
vn -0.4497508 -0.8931541 3.724002E-05
vn 0.4497456 -0.8931567 1.007367E-05
vn 0.4497564 -0.8931512 1.518266E-05
vn 0.4497564 -0.8931512 1.518266E-05
vn 0.4497772 -0.8931409 2.493947E-05
vn -4.482261E-06 -0.9292868 -0.369359
vn -5.793174E-06 -0.9292876 -0.3693571
vn -5.793174E-06 -0.9292876 -0.3693571
vn -9.458342E-06 -0.9292897 -0.3693519
vn -1.617365E-10 1 -1.378288E-05
vn -1.618833E-10 1 -1.378288E-05
vn -1.618833E-10 1 -1.378288E-05
vn -1.620646E-10 1 -1.378288E-05
vn -1.686614E-05 0.9999999 -1.438207E-05
vn -8.840041E-06 1 -1.555984E-05
vn -8.840041E-06 1 -1.555984E-05
vn -8.840041E-06 1 -1.555984E-05
vn 3.085874E-06 0.9999999 -1.730987E-05
vn -8.840041E-06 1 -1.555984E-05
vn 8.839842E-06 1 -1.556009E-05
vn 2.27546E-05 1 -1.73102E-05
vn -6.979758E-11 1 -5.996312E-06
vn -6.97964E-11 1 -5.996312E-06
vn -6.97964E-11 1 -5.996312E-06
vn -6.97964E-11 1 -5.996312E-06
vn -6.979495E-11 1 -5.996312E-06
vn -6.97964E-11 1 -5.996312E-06
vn 1.055228E-05 0.4511251 0.8924606
vn 1.050045E-05 0.4511254 0.8924606
vn 1.050045E-05 0.4511254 0.8924606
vn 1.044116E-05 0.4511255 0.8924605
vn 0.9666169 0.2562259 -1.958509E-05
vn 0.9666172 0.2562242 -2.015614E-05
vn 0.9666172 0.2562242 -2.015614E-05
vn 0.9666179 0.2562224 -2.084432E-05
vn -0.9666149 0.2562332 1.192683E-05
vn -0.9666151 0.256233 1.205561E-05
vn -0.9666151 0.256233 1.205561E-05
vn -0.9666151 0.2562326 1.22108E-05
vn -1.163966E-05 -0.005406896 -0.9999854
vn -1.160547E-05 -0.005406761 -0.9999853
vn -1.160547E-05 -0.005406761 -0.9999853
vn -1.156638E-05 -0.005406607 -0.9999853
vn 7.76803E-06 0.7477006 0.664036
vn 8.654742E-06 0.7476996 0.6640371
vn 8.654742E-06 0.7476996 0.6640371
vn 1.078229E-05 0.7476972 0.6640399
vn 0.6831124 0.7303132 -2.555151E-05
vn 0.6831151 0.7303107 -2.76471E-05
vn 0.6831151 0.7303107 -2.76471E-05
vn 0.6831197 0.7303064 -3.120316E-05
vn -0.6831107 0.7303149 -2.190558E-06
vn -0.6831085 0.7303168 -5.476089E-06
vn -0.6831085 0.7303168 -5.476089E-06
vn -0.6831049 0.7303202 -1.105152E-05
vn -1.146973E-05 -0.1291865 -0.9916204
vn -1.27838E-05 -0.1291898 -0.9916199
vn -1.27838E-05 -0.1291898 -0.9916199
vn -1.593672E-05 -0.1291979 -0.9916188

vt 0.3999999 0
vt 0 0
vt 0.3999999 0.04523373
vt 0 0.04523373
vt 0.3354131 0
vt 0 3.205612E-06
vt 0.3354176 0.04523373
vt 4.768372E-06 0.04523689
vt 0.3999998 0
vt 0 0
vt 0.3999998 0.04523369
vt 0 0.04523369
vt 0.3354175 3.205612E-06
vt 4.500151E-06 0
vt 0.3354128 0.04523689
vt 1.490116E-08 0.04523373
vt 1.311302E-06 0.1264215
vt 0.1010962 0.1264194
vt -1.490116E-08 2.115965E-06
vt 0.1010952 0
vt 0.1180614 1.370907E-06
vt 1.251698E-06 0
vt 0.1180604 0.1103843
vt 0 0.1103829
vt 0.3999999 3.72529E-09
vt 0 3.72529E-09
vt 0.341329 0.0886123
vt 0.05867237 0.0886123
vt 0.3368601 3.796071E-06
vt 0.001447335 3.72529E-09
vt 0.2414308 0.1062688
vt 1.490116E-08 0.1062653
vt 0.3354128 0
vt 0 3.799796E-06
vt 0.3368599 0.1062661
vt 0.09542903 0.1062696
vt 0.3999998 0
vt 1.490116E-08 3.904104E-06
vt 0.3413289 0.1302184
vt 0.05867234 0.1302213
vt 0.2826567 0
vt 0 0
vt 0.1918764 0.04571271
vt 0.09078157 0.04571271
vt 7.450581E-09 0
vt 3.650784E-07 0.2414308
vt 0.1016409 0.1150111
vt 0.1016405 0.2414304
vt 0.1016438 0.2414308
vt 0.1016405 0
vt 2.518296E-06 0.2414305
vt 0 0.1150111
vt 0.2826566 0
vt 1.490116E-08 2.279878E-06
vt 0.1918763 0.123763
vt 0.09078108 0.1237651
vt 0.3999998 2.861023E-06
vt 0 0
vt 0.3619995 0.0332526
vt 0.03799972 0.03325027
vt 0.03799991 0.335413
vt 0.03800276 0
vt 0 0.2589856
vt 0.03800276 0
vt 2.488494E-06 0.03324974
vt 0 0.2589856
vt 0 0.3354131
vt 0.0379999 0.2589862
vt 0 0.07642688
vt 0.3999999 0.07642967
vt 0.0379999 0
vt 0.3999999 0.07642967
vt 0.362 2.264977E-06
vt 0.0379999 0
vt 0.3239998 0
vt 0 0
vt 0.303634 0.08608786
vt 0.02036634 0.08608788
vt 0.2257359 0
vt 0 2.916902E-06
vt 0.2261511 0.07948367
vt 0.03883618 0.07948649
vt 0.226151 2.913177E-06
vt 0.0004149973 0
vt 0.1873149 0.07948671
vt -7.450581E-09 0.07948381
vt 0.3240001 0
vt 1.490116E-08 0
vt 0.3036338 0.07683138
vt 0.02036579 0.07683138
vt 0.2832677 2.667308E-06
vt 0 0
vt 0.200663 0.1163565
vt 0.08260289 0.1163549
vt 0.1131073 0.1873149
vt 0.113107 0
vt 1.177192E-06 0.1973803
vt 0 0.0869974
vt 3.710389E-06 0
vt 0 0.1873149
vt 0.1131101 0.08699805
vt 0.1131073 0.197381
vt 0.283268 -7.450581E-09
vt 0 -7.450581E-09
vt 0.2006633 0.07791691
vt 0.08260295 0.07791698

usemtl Default_Prototype
usemap Default_Prototype
f 2/2/2 1/1/1 3/3/3
f 4/4/4 2/2/2 3/3/3
f 6/6/6 5/5/5 7/7/7
f 8/8/8 6/6/6 7/7/7
f 10/10/10 9/9/9 11/11/11
f 12/12/12 10/10/10 11/11/11
f 14/14/14 13/13/13 15/15/15
f 16/16/16 14/14/14 15/15/15
f 18/18/18 17/17/17 19/19/19
f 20/20/20 18/18/18 19/19/19
f 22/22/22 21/21/21 23/23/23
f 24/24/24 22/22/22 23/23/23
f 26/26/26 25/25/25 27/27/27
f 28/28/28 26/26/26 27/27/27
f 30/30/30 29/29/29 31/31/31
f 32/32/32 30/30/30 31/31/31
f 34/34/34 33/33/33 35/35/35
f 36/36/36 34/34/34 35/35/35
f 38/38/38 37/37/37 39/39/39
f 40/40/40 38/38/38 39/39/39
f 42/42/42 41/41/41 43/43/43
f 44/44/44 42/42/42 43/43/43
f 46/46/46 45/45/45 47/47/47
f 48/48/48 46/46/46 47/47/47
f 50/50/50 49/49/49 51/51/51
f 52/52/52 50/50/50 51/51/51
f 54/54/54 53/53/53 55/55/55
f 56/56/56 54/54/54 55/55/55
f 58/58/58 57/57/57 59/59/59
f 60/60/60 58/58/58 59/59/59
f 62/62/62 61/61/61 63/63/63
f 65/65/65 64/64/64 66/66/66
f 67/67/67 58/58/58 60/60/60
f 68/68/68 67/67/67 60/60/60
f 70/70/70 69/69/69 71/71/71
f 73/73/73 72/72/72 74/74/74
f 76/76/76 75/75/75 77/77/77
f 78/78/78 76/76/76 77/77/77
f 80/80/80 79/79/79 81/81/81
f 82/82/82 80/80/80 81/81/81
f 84/84/84 83/83/83 85/85/85
f 86/86/86 84/84/84 85/85/85
f 88/88/88 87/87/87 89/89/89
f 90/90/90 88/88/88 89/89/89
f 92/92/92 91/91/91 93/93/93
f 94/94/94 92/92/92 93/93/93
f 96/96/96 95/95/95 97/97/97
f 98/98/98 96/96/96 97/97/97
f 100/100/100 99/99/99 101/101/101
f 102/102/102 100/100/100 101/101/101
f 104/104/104 103/103/103 105/105/105
f 106/106/106 104/104/104 105/105/105
