mtllib ./Layout.unity_1.mtl
g Bed
v 3.827 0 0.703
v 2.457 0 0.703
v 3.827 0.15 0.703
v 2.457 0.15 0.703
v 2.457 0 0.703
v 2.457 0 -1.197
v 2.457 0.15 0.703
v 2.457 0.15 -1.197
v 2.457 0 -1.197
v 3.827 0 -1.197
v 2.457 0.15 -1.197
v 3.827 0.15 -1.197
v 3.827 0 -1.197
v 3.827 0 0.703
v 3.827 0.15 -1.197
v 3.827 0.15 0.703
v 3.827 0.15 0.703
v 2.457 0.15 0.703
v 3.827 0.15 -1.197
v 2.457 0.15 -1.197
v 3.827 0 -1.197
v 2.457 0 -1.197
v 3.827 0 0.703
v 2.457 0 0.703

vn 0 0 1
vn 0 0 1
vn 0 0 1
vn 0 0 1
vn -1 0 0
vn -1 0 0
vn -1 0 0
vn -1 0 0
vn 0 0 -1
vn 0 0 -1
vn 0 0 -1
vn 0 0 -1
vn 1 0 0
vn 1 0 0
vn 1 0 0
vn 1 0 0
vn 0 0.9999999 0
vn 0 0.9999999 0
vn 0 0.9999999 0
vn 0 0.9999999 0
vn 0 -0.9999999 0
vn 0 -0.9999999 0
vn 0 -0.9999999 0
vn 0 -0.9999999 0

vt 1.37 0
vt 0 0
vt 1.37 0.15
vt 0 0.15
vt 1.9 0
vt 0 0
vt 1.9 0.15
vt 0 0.15
vt 1.37 0
vt -5.960464E-08 0
vt 1.37 0.15
vt -5.960464E-08 0.15
vt 1.9 0
vt 0 0
vt 1.9 0.15
vt 0 0.15
vt -5.960464E-08 1.9
vt 1.37 1.9
vt -5.960464E-08 0
vt 1.37 0
vt 1.37 0
vt 0 0
vt 1.37 1.9
vt 0 1.9

usemtl Default_Prototype
usemap Default_Prototype
f 2/2/2 1/1/1 3/3/3
f 4/4/4 2/2/2 3/3/3
f 6/6/6 5/5/5 7/7/7
f 8/8/8 6/6/6 7/7/7
f 10/10/10 9/9/9 11/11/11
f 12/12/12 10/10/10 11/11/11
f 14/14/14 13/13/13 15/15/15
f 16/16/16 14/14/14 15/15/15
f 18/18/18 17/17/17 19/19/19
f 20/20/20 18/18/18 19/19/19
f 22/22/22 21/21/21 23/23/23
f 24/24/24 22/22/22 23/23/23
