mtllib ./Layout.unity_4.mtl
g Computer
v 1.325 0.81 2.015001
v 1.325 0.81 1.645001
v 1.325 0.95 2.015001
v 1.325 0.95 1.645001
v 1.325 0.81 1.645001
v 1.795 0.81 1.645
v 1.325 0.95 1.645001
v 1.795 0.95 1.645
v 1.795 0.81 1.645
v 1.795 0.81 2.015
v 1.795 0.95 1.645
v 1.795 0.95 2.015
v 1.795 0.81 2.015
v 1.325 0.81 2.015001
v 1.795 0.95 2.015
v 1.325 0.95 2.015001
v 1.325 0.95 2.015001
v 1.325 0.95 1.645001
v 1.795 0.95 2.015
v 1.795 0.95 1.645
v 1.795 0.81 2.015
v 1.795 0.81 1.645
v 1.325 0.81 2.015001
v 1.325 0.81 1.645001

vn -1 0 2.205372E-06
vn -1 0 2.205372E-06
vn -1 0 2.205372E-06
vn -1 0 2.205372E-06
vn -2.205372E-06 0 -1
vn -2.205372E-06 0 -1
vn -2.205372E-06 0 -1
vn -2.205372E-06 0 -1
vn 1 0 -2.205372E-06
vn 1 0 -2.205372E-06
vn 1 0 -2.205372E-06
vn 1 0 -2.205372E-06
vn 2.205372E-06 0 1
vn 2.205372E-06 0 1
vn 2.205372E-06 0 1
vn 2.205372E-06 0 1
vn 0 1 0
vn 0 1 0
vn 0 1 0
vn 0 1 0
vn 0 -1 0
vn 0 -1 0
vn 0 -1 0
vn 0 -1 0

vt 0.37 -7.450581E-09
vt 0 -7.450581E-09
vt 0.37 0.14
vt 0 0.14
vt 0.47 -7.450581E-09
vt 0 -7.450581E-09
vt 0.47 0.14
vt 0 0.14
vt 0.37 -7.450581E-09
vt 0 -7.450581E-09
vt 0.37 0.14
vt 0 0.14
vt 0.47 -7.450581E-09
vt 1.490116E-08 -7.450581E-09
vt 0.47 0.14
vt 1.490116E-08 0.14
vt 0 0.47
vt 0.37 0.47
vt 0 0
vt 0.37 0
vt 0.37 0
vt 0 0
vt 0.37 0.47
vt 0 0.47

usemtl Default_Prototype
usemap Default_Prototype
f 2/2/2 1/1/1 3/3/3
f 4/4/4 2/2/2 3/3/3
f 6/6/6 5/5/5 7/7/7
f 8/8/8 6/6/6 7/7/7
f 10/10/10 9/9/9 11/11/11
f 12/12/12 10/10/10 11/11/11
f 14/14/14 13/13/13 15/15/15
f 16/16/16 14/14/14 15/15/15
f 18/18/18 17/17/17 19/19/19
f 20/20/20 18/18/18 19/19/19
f 22/22/22 21/21/21 23/23/23
f 24/24/24 22/22/22 23/23/23
g Monitor
v 1.361339 0.945 1.990644
v 1.361339 0.945 1.665329
v 1.361339 1.178805 1.972557
v 1.361339 1.236871 1.701463
v 1.409609 0.9774336 1.657567
v 1.703517 0.9774336 1.657566
v 1.409609 1.209352 1.686278
v 1.703517 1.209352 1.686278
v 1.751787 0.945 1.665328
v 1.751788 0.945 1.990644
v 1.751787 1.236871 1.701462
v 1.751787 1.178805 1.972557
v 1.751788 0.945 1.990644
v 1.361339 0.945 1.990644
v 1.751787 1.178805 1.972557
v 1.361339 1.178805 1.972557
v 1.361339 1.178805 1.972557
v 1.361339 1.236871 1.701463
v 1.751787 1.178805 1.972557
v 1.751787 1.236871 1.701462
v 1.751788 0.945 1.990644
v 1.751787 0.945 1.665328
v 1.361339 0.945 1.990644
v 1.361339 0.945 1.665329
v 1.361339 0.945 1.665329
v 1.751787 0.945 1.665328
v 1.398548 0.9674769 1.646237
v 1.714578 0.9674769 1.646237
v 1.361339 1.236871 1.701463
v 1.361339 0.945 1.665329
v 1.398548 1.216852 1.67711
v 1.398548 0.9674769 1.646237
v 1.751787 0.945 1.665328
v 1.751787 1.236871 1.701462
v 1.714578 0.9674769 1.646237
v 1.714578 1.216852 1.677109
v 1.751787 1.236871 1.701462
v 1.361339 1.236871 1.701463
v 1.714578 1.216852 1.677109
v 1.398548 1.216852 1.67711
v 1.398548 0.9674769 1.646237
v 1.714578 0.9674769 1.646237
v 1.409609 0.9774336 1.657567
v 1.703517 0.9774336 1.657566
v 1.398548 1.216852 1.67711
v 1.398548 0.9674769 1.646237
v 1.409609 1.209352 1.686278
v 1.409609 0.9774336 1.657567
v 1.714578 0.9674769 1.646237
v 1.714578 1.216852 1.677109
v 1.703517 0.9774336 1.657566
v 1.703517 1.209352 1.686278
v 1.714578 1.216852 1.677109
v 1.398548 1.216852 1.67711
v 1.703517 1.209352 1.686278
v 1.409609 1.209352 1.686278

vn -1 0 2.205372E-06
vn -1 0 2.205372E-06
vn -1 0 2.205372E-06
vn -1 0 2.205372E-06
vn -2.188664E-06 0.1228615 -0.9924238
vn -2.188664E-06 0.1228615 -0.9924238
vn -2.188664E-06 0.1228615 -0.9924238
vn -2.188664E-06 0.1228615 -0.9924238
vn 0.9999999 0 -2.205372E-06
vn 1 0 -2.205372E-06
vn 1 0 -2.205372E-06
vn 0.9999999 0 -2.205372E-06
vn 2.198803E-06 0.07712846 0.9970212
vn 2.198803E-06 0.07712846 0.9970212
vn 2.198803E-06 0.07712846 0.9970212
vn 2.198803E-06 0.07712846 0.9970212
vn 4.618965E-07 0.9778211 0.2094416
vn 4.618965E-07 0.9778211 0.2094416
vn 4.618965E-07 0.9778211 0.2094416
vn 4.618965E-07 0.9778211 0.2094416
vn 0 -1 0
vn 0 -1 0
vn 0 -1 0
vn 0 -1 0
vn -1.680866E-06 -0.6473778 -0.7621692
vn -1.680866E-06 -0.6473778 -0.7621692
vn -1.680866E-06 -0.6473778 -0.7621692
vn -1.680867E-06 -0.6473779 -0.7621692
vn -0.5039299 0.1061211 -0.8572006
vn -0.5039298 0.1061211 -0.8572007
vn -0.5039298 0.1061211 -0.8572007
vn -0.5039296 0.106121 -0.8572009
vn 0.5039259 0.1061211 -0.8572031
vn 0.503926 0.1061211 -0.8572029
vn 0.503926 0.1061211 -0.8572029
vn 0.5039262 0.106121 -0.8572029
vn -1.400491E-06 0.7724825 -0.6350363
vn -1.400491E-06 0.7724823 -0.6350362
vn -1.400491E-06 0.7724823 -0.6350362
vn -1.400491E-06 0.7724824 -0.6350362
vn -1.455834E-06 0.7511507 -0.6601307
vn -1.455834E-06 0.7511507 -0.6601307
vn -1.455834E-06 0.7511507 -0.6601307
vn -1.455834E-06 0.7511507 -0.6601308
vn 0.6713855 0.09105344 -0.7354936
vn 0.6713852 0.0910535 -0.7354939
vn 0.6713852 0.0910535 -0.7354939
vn 0.6713849 0.09105356 -0.7354941
vn -0.6713871 0.09105361 -0.735492
vn -0.6713874 0.09105361 -0.7354918
vn -0.6713874 0.09105361 -0.7354918
vn -0.6713878 0.09105361 -0.7354915
vn -1.3963E-06 -0.7740406 -0.633136
vn -1.3963E-06 -0.7740406 -0.633136
vn -1.3963E-06 -0.7740406 -0.633136
vn -1.3963E-06 -0.7740406 -0.633136

vt 0.3253152 0
vt 0 0
vt 0.3072283 0.2338052
vt 0.03613353 0.2918715
vt 0.293908 -7.450581E-09
vt 0 -7.450581E-09
vt 0.293908 0.2336892
vt 0 0.2336892
vt 0.3253152 0
vt 0 0
vt 0.2891817 0.2918715
vt 0.01808691 0.2338052
vt 0.390448 7.450581E-09
vt 0 7.450581E-09
vt 0.390448 0.2345037
vt 0 0.2345037
vt -1.490116E-08 0.390448
vt 0.2772437 0.390448
vt -1.490116E-08 0
vt 0.2772437 0
vt 0.3253152 0
vt 0 0
vt 0.3253152 0.390448
vt 0 0.390448
vt 0.390448 0
vt 0 0
vt 0.3532391 0.02949065
vt 0.03720897 0.02949065
vt 0.06006432 0.2935291
vt 0.04175219 0
vt 0.01564589 0.2733957
vt 2.980232E-08 0.02260453
vt 0.0183121 1.490116E-08
vt 0 0.2935291
vt 0.06006424 0.02260453
vt 0.04441839 0.2733957
vt 0 0
vt 0 0.390448
vt 0.03152521 0.03720897
vt 0.03152521 0.3532391
vt 0.01508299 0.3160301
vt 0.01508299 0
vt 0 0.304969
vt 0 0.01106107
vt 0.01435056 0.2504152
vt 0.03516441 0
vt 7.450581E-09 0.2428844
vt 0.01935688 0.009998262
vt 0 0
vt 0.02081382 0.2504153
vt 0.01580757 0.009998277
vt 0.03516436 0.2428845
vt 5.960464E-08 0
vt 5.960464E-08 0.3160301
vt 0.01184511 0.01106107
vt 0.01184511 0.304969

usemtl Default_Prototype
usemap Default_Prototype
f 26/26/26 25/25/25 27/27/27
f 28/28/28 26/26/26 27/27/27
f 30/30/30 29/29/29 31/31/31
f 32/32/32 30/30/30 31/31/31
f 34/34/34 33/33/33 35/35/35
f 36/36/36 34/34/34 35/35/35
f 38/38/38 37/37/37 39/39/39
f 40/40/40 38/38/38 39/39/39
f 42/42/42 41/41/41 43/43/43
f 44/44/44 42/42/42 43/43/43
f 46/46/46 45/45/45 47/47/47
f 48/48/48 46/46/46 47/47/47
f 50/50/50 49/49/49 51/51/51
f 52/52/52 50/50/50 51/51/51
f 54/54/54 53/53/53 55/55/55
f 56/56/56 54/54/54 55/55/55
f 58/58/58 57/57/57 59/59/59
f 60/60/60 58/58/58 59/59/59
f 62/62/62 61/61/61 63/63/63
f 64/64/64 62/62/62 63/63/63
f 66/66/66 65/65/65 67/67/67
f 68/68/68 66/66/66 67/67/67
f 70/70/70 69/69/69 71/71/71
f 72/72/72 70/70/70 71/71/71
f 74/74/74 73/73/73 75/75/75
f 76/76/76 74/74/74 75/75/75
f 78/78/78 77/77/77 79/79/79
f 80/80/80 78/78/78 79/79/79
g Keyboard
v 1.38067 0.81 1.60378
v 1.380669 0.81 1.431
v 1.38067 0.8555647 1.60378
v 1.380669 0.8310645 1.431
v 1.380669 0.81 1.431
v 1.78486 0.81 1.430999
v 1.380669 0.8310645 1.431
v 1.78486 0.8310645 1.430999
v 1.78486 0.81 1.430999
v 1.784861 0.81 1.603779
v 1.78486 0.8310645 1.430999
v 1.784861 0.8555647 1.603779
v 1.784861 0.81 1.603779
v 1.38067 0.81 1.60378
v 1.784861 0.8555647 1.603779
v 1.38067 0.8555647 1.60378
v 1.400879 0.8642406 1.593737
v 1.400879 0.8421905 1.438235
v 1.764651 0.8642406 1.593736
v 1.764651 0.8421905 1.438235
v 1.784861 0.81 1.603779
v 1.78486 0.81 1.430999
v 1.38067 0.81 1.60378
v 1.380669 0.81 1.431
v 1.38067 0.8555647 1.60378
v 1.380669 0.8310645 1.431
v 1.400879 0.8543397 1.595141
v 1.400879 0.8322895 1.439639
v 1.784861 0.8555647 1.603779
v 1.38067 0.8555647 1.60378
v 1.764651 0.8543397 1.59514
v 1.400879 0.8543397 1.595141
v 1.380669 0.8310645 1.431
v 1.78486 0.8310645 1.430999
v 1.400879 0.8322895 1.439639
v 1.764651 0.8322895 1.439638
v 1.78486 0.8310645 1.430999
v 1.784861 0.8555647 1.603779
v 1.764651 0.8322895 1.439638
v 1.764651 0.8543397 1.59514
v 1.400879 0.8543397 1.595141
v 1.400879 0.8322895 1.439639
v 1.400879 0.8642406 1.593737
v 1.400879 0.8421905 1.438235
v 1.764651 0.8543397 1.59514
v 1.400879 0.8543397 1.595141
v 1.764651 0.8642406 1.593736
v 1.400879 0.8642406 1.593737
v 1.400879 0.8322895 1.439639
v 1.764651 0.8322895 1.439638
v 1.400879 0.8421905 1.438235
v 1.764651 0.8421905 1.438235
v 1.764651 0.8322895 1.439638
v 1.764651 0.8543397 1.59514
v 1.764651 0.8421905 1.438235
v 1.764651 0.8642406 1.593736

vn -1 0 2.205372E-06
vn -1 0 2.205372E-06
vn -1 0 2.205372E-06
vn -1 0 2.205372E-06
vn -2.205372E-06 0 -1
vn -2.205372E-06 0 -1
vn -2.205372E-06 0 -1
vn -2.205372E-06 0 -1
vn 1 0 -2.205372E-06
vn 1 0 -2.205372E-06
vn 1 0 -2.205372E-06
vn 1 0 -2.205372E-06
vn 2.205372E-06 0 1
vn 2.205372E-06 0 1
vn 2.205372E-06 0 1
vn 2.205372E-06 0 1
vn -3.096243E-07 0.9900956 -0.1403955
vn -3.096243E-07 0.9900956 -0.1403955
vn -3.096243E-07 0.9900956 -0.1403955
vn -3.096243E-07 0.9900956 -0.1403955
vn 0 -1 0
vn 0 -1 0
vn 0 -1 0
vn 0 -1 0
vn -3.467599E-07 0.9900954 -0.1403955
vn -3.096243E-07 0.9900955 -0.1403955
vn -3.096243E-07 0.9900955 -0.1403955
vn -2.683624E-07 0.9900955 -0.1403955
vn -3.096241E-07 0.9900955 -0.1403954
vn -3.096241E-07 0.9900956 -0.1403954
vn -3.096241E-07 0.9900956 -0.1403954
vn -3.096241E-07 0.9900956 -0.1403954
vn -3.096241E-07 0.9900955 -0.1403954
vn -3.096241E-07 0.9900954 -0.1403954
vn -3.096241E-07 0.9900954 -0.1403954
vn -3.09624E-07 0.9900955 -0.1403954
vn -3.467599E-07 0.9900956 -0.1403955
vn -3.096243E-07 0.9900955 -0.1403955
vn -3.096243E-07 0.9900955 -0.1403955
vn -2.683624E-07 0.9900955 -0.1403955
vn -1 0 2.205372E-06
vn -1 0 2.205372E-06
vn -1 0 2.205372E-06
vn -1 0 2.205372E-06
vn 2.183529E-06 0.1403928 0.9900958
vn 2.183529E-06 0.1403928 0.9900958
vn 2.183529E-06 0.1403928 0.9900958
vn 2.183529E-06 0.1403928 0.9900958
vn -2.183529E-06 -0.1403928 -0.9900958
vn -2.183529E-06 -0.1403928 -0.9900958
vn -2.183529E-06 -0.1403928 -0.9900958
vn -2.183529E-06 -0.1403928 -0.9900958
vn 1 0 -2.205372E-06
vn 1 0 -2.205372E-06
vn 1 0 -2.205372E-06
vn 1 0 -2.205372E-06

vt 0.1727796 0
vt 0 0
vt 0.1727796 0.04556465
vt 0 0.02106452
vt 0.4041908 0
vt 0 0
vt 0.4041908 0.02106452
vt 0 0.02106452
vt 0.1727796 0
vt 0 0
vt 0.1727796 0.02106452
vt 0 0.04556465
vt 0.4041908 0
vt 0 0
vt 0.4041908 0.04556465
vt 0 0.04556465
vt 0 0.3637717
vt 0.1570572 0.3637717
vt 0 0
vt 0.1570572 0
vt 0.1727796 0
vt 0 0
vt 0.1727796 0.4041908
vt 0 0.4041908
vt 0 0.02020955
vt 0.174508 0.02020955
vt 0.008725405 1.490116E-08
vt 0.1657826 1.490116E-08
vt 0 0
vt 0 0.4041908
vt 0.008725345 0.02020955
vt 0.008725345 0.3839812
vt 0.008725405 0.4041908
vt 0.008725405 0
vt 0 0.3839812
vt 0 0.02020955
vt 0.174508 0
vt 0 0
vt 0.1657826 0.02020955
vt 0.008725405 0.02020955
vt 0.1569055 0.02205012
vt 0.001403928 -1.862645E-09
vt 0.1555016 0.03195107
vt 0 0.009900952
vt 0.3637717 -7.450581E-09
vt -1.490116E-08 -7.450581E-09
vt 0.3637717 0.00999999
vt -1.490116E-08 0.00999999
vt 0.3637717 -7.450581E-09
vt 0 -7.450581E-09
vt 0.3637717 0.00999999
vt 0 0.00999999
vt 0.1555016 -1.862645E-09
vt 0 0.02205012
vt 0.1569055 0.009900952
vt 0.001403928 0.03195107

usemtl Default_Prototype
usemap Default_Prototype
f 82/82/82 81/81/81 83/83/83
f 84/84/84 82/82/82 83/83/83
f 86/86/86 85/85/85 87/87/87
f 88/88/88 86/86/86 87/87/87
f 90/90/90 89/89/89 91/91/91
f 92/92/92 90/90/90 91/91/91
f 94/94/94 93/93/93 95/95/95
f 96/96/96 94/94/94 95/95/95
f 98/98/98 97/97/97 99/99/99
f 100/100/100 98/98/98 99/99/99
f 102/102/102 101/101/101 103/103/103
f 104/104/104 102/102/102 103/103/103
f 106/106/106 105/105/105 107/107/107
f 108/108/108 106/106/106 107/107/107
f 110/110/110 109/109/109 111/111/111
f 112/112/112 110/110/110 111/111/111
f 114/114/114 113/113/113 115/115/115
f 116/116/116 114/114/114 115/115/115
f 118/118/118 117/117/117 119/119/119
f 120/120/120 118/118/118 119/119/119
f 122/122/122 121/121/121 123/123/123
f 124/124/124 122/122/122 123/123/123
f 126/126/126 125/125/125 127/127/127
f 128/128/128 126/126/126 127/127/127
f 130/130/130 129/129/129 131/131/131
f 132/132/132 130/130/130 131/131/131
f 134/134/134 133/133/133 135/135/135
f 136/136/136 134/134/134 135/135/135
g Mouse
v 1.2438 0.8099999 1.562943
v 1.232637 0.8099999 1.490001
v 1.2438 0.833626 1.562943
v 1.232637 0.8403314 1.490001
v 1.232637 0.8099999 1.490001
v 1.299999 0.8099999 1.490001
v 1.232637 0.8403314 1.490001
v 1.299999 0.8403314 1.490001
v 1.299999 0.8099999 1.490001
v 1.288836 0.8099999 1.562943
v 1.299999 0.8403314 1.490001
v 1.288836 0.833626 1.562943
v 1.288836 0.8099999 1.562943
v 1.2438 0.8099999 1.562943
v 1.288836 0.833626 1.562943
v 1.2438 0.833626 1.562943
v 1.2438 0.833626 1.562943
v 1.232637 0.8403314 1.490001
v 1.288836 0.833626 1.562943
v 1.299999 0.8403314 1.490001
v 1.288836 0.8099999 1.562943
v 1.299999 0.8099999 1.490001
v 1.2438 0.8099999 1.562943
v 1.232637 0.8099999 1.490001

vn -0.9884903 0 0.151284
vn -0.9884903 0 0.151284
vn -0.9884903 0 0.151284
vn -0.9884903 0 0.151284
vn -2.205372E-06 0 -1
vn -2.205372E-06 0 -1
vn -2.205372E-06 0 -1
vn -2.205372E-06 0 -1
vn 0.988491 0 0.1512797
vn 0.9884911 0 0.1512797
vn 0.9884911 0 0.1512797
vn 0.988491 0 0.1512797
vn 2.205372E-06 0 1
vn 2.205372E-06 0 1
vn 2.205372E-06 0 1
vn 2.205372E-06 0 1
vn 2.018823E-07 0.9958013 0.09154117
vn 2.018823E-07 0.9958013 0.09154117
vn 2.018823E-07 0.9958013 0.09154117
vn 2.018823E-07 0.9958013 0.09154116
vn 0 -1 0
vn 0 -1 0
vn 0 -1 0
vn 0 -1 0

vt 0.07379189 0
vt 0 0
vt 0.07379189 0.02362606
vt 0 0.03033147
vt 0.0673624 0
vt 0 0
vt 0.0673624 0.03033147
vt 0 0.03033147
vt 0.07379189 0
vt 0 0
vt 0.07379189 0.03033147
vt 0 0.02362606
vt 0.04503565 0
vt -3.72529E-09 0
vt 0.04503565 0.02362606
vt -3.72529E-09 0.02362606
vt -3.72529E-09 0.05619903
vt 0.07325014 0.0673624
vt -3.72529E-09 0.01116338
vt 0.07325014 0
vt 0.07294258 0.01116338
vt 0 0
vt 0.07294258 0.05619903
vt 0 0.0673624

usemtl Default_Prototype
usemap Default_Prototype
f 138/138/138 137/137/137 139/139/139
f 140/140/140 138/138/138 139/139/139
f 142/142/142 141/141/141 143/143/143
f 144/144/144 142/142/142 143/143/143
f 146/146/146 145/145/145 147/147/147
f 148/148/148 146/146/146 147/147/147
f 150/150/150 149/149/149 151/151/151
f 152/152/152 150/150/150 151/151/151
f 154/154/154 153/153/153 155/155/155
f 156/156/156 154/154/154 155/155/155
f 158/158/158 157/157/157 159/159/159
f 160/160/160 158/158/158 159/159/159
